<?xml version="1.0" encoding="utf-8"?>
<!-- Generator: Adobe Illustrator 22.1.0, SVG Export Plug-In . SVG Version: 6.00 Build 0)  -->
<svg version="1.1" id="Layer_1" xmlns="http://www.w3.org/2000/svg" xmlns:xlink="http://www.w3.org/1999/xlink" x="0px" y="0px"
	 viewBox="0 0 701 223" style="enable-background:new 0 0 701 223;" xml:space="preserve">
<style type="text/css">
	.st0{fill:#FFFFFF;}
</style>
<title>Lab-companion_white</title>
<g>
	<g>
		<path class="st0" d="M98.4,104.1l7-22.4c0.5-1.7,2.3-2.6,3.9-2.1c0.9,0.3,1.7,1,2,1.9l18.4,49.5l5-14.7c0.4-1.3,1.7-2.1,3-2.1
			l43.7,0.8c12.5-12.1,12.8-32,0.7-44.4c-12.1-12.5-32-12.8-44.4-0.7c-1.9,1.8-3.6,3.9-4.9,6.2c-9.1-14.8-28.4-19.5-43.2-10.4
			c-13.1,8-18.5,24.2-12.8,38.4H98.4z"/>
		<path class="st0" d="M139.9,120.5l-7.1,20.8c-0.4,1.2-1.6,2.1-2.9,2.1h0c-1.3,0-2.5-0.8-2.9-2l-18.2-49.1l-4.9,15.8
			c-0.4,1.3-1.6,2.2-3,2.2H80.2c1.5,2.1,3.2,4.1,5.2,5.8l44.6,44.6c1.6,1.6,4.1,1.6,5.7,0c0,0,0,0,0,0l39.5-39.5L139.9,120.5z"/>
	</g>
	<g>
		<path class="st0" d="M233.9,90.8h11.5v25.3H260v9.6h-26.1V90.8z"/>
		<path class="st0" d="M285.7,100.7c2.2,1.8,3.5,4.6,3.3,7.4v17.6h-11v-2.9c-1.7,2.3-4.2,3.4-7.7,3.4c-2.5,0.1-4.9-0.7-6.7-2.3
			c-1.6-1.6-2.5-3.9-2.4-6.2c-0.1-2.4,0.9-4.6,2.7-6.1c1.8-1.4,4.4-2.1,7.9-2.2h6.2c0-0.9-0.4-1.7-1.1-2.2c-0.9-0.6-2-0.8-3.1-0.8
			c-1.3,0-2.6,0.2-3.8,0.5c-1.5,0.3-3,0.7-4.4,1.3l-2.5-7.5c2.3-0.9,4.6-1.5,6.9-2c2.1-0.4,4.3-0.7,6.5-0.7
			C280.4,98,283.5,98.9,285.7,100.7z M276.3,118.5c0.7-0.4,1.3-0.9,1.7-1.5v-2.5h-3.9c-1.6,0-2.4,0.7-2.4,2.2c0,0.7,0.2,1.3,0.7,1.8
			c0.5,0.4,1.2,0.7,1.8,0.6C275,119.1,275.7,118.9,276.3,118.5z"/>
		<path class="st0" d="M318.6,99.8c1.9,1.2,3.4,2.9,4.4,5c1.1,2.3,1.6,4.9,1.5,7.5c0.1,2.5-0.5,5-1.5,7.3c-0.9,2-2.4,3.7-4.2,4.8
			c-1.9,1.2-4.2,1.7-6.4,1.7c-1.4,0-2.7-0.3-4-0.8c-1.2-0.5-2.3-1.4-3.2-2.4v2.8H294v-37h11.2v12.4c1.7-2,4.3-3.2,6.9-3.1
			C314.4,98,316.7,98.7,318.6,99.8z M312.2,115.8c1.5-2.3,1.5-5.3,0-7.7c-0.7-0.9-1.8-1.5-3-1.4c-1.2,0-2.3,0.5-2.9,1.4
			c-1.5,2.3-1.5,5.3,0,7.7c0.7,0.9,1.8,1.5,2.9,1.4C310.4,117.3,311.5,116.8,312.2,115.8L312.2,115.8z"/>
		<path class="st0" d="M362.7,97.6c-1.6-0.8-3.3-1.2-5.1-1.2c-2.1,0-4.1,0.5-5.9,1.5c-1.8,1-3.2,2.5-4.2,4.3
			c-2.1,3.7-2.1,8.2,0,11.9c1,1.8,2.5,3.3,4.2,4.3c1.8,1.1,3.8,1.6,5.9,1.6c1.7,0,3.4-0.4,5-1.1c1.7-0.7,3.2-1.7,4.4-3l3.9,4.4
			c-1.8,1.9-4,3.4-6.4,4.4c-2.3,1-4.8,1.6-7.4,1.6c-3.2,0-6.4-0.8-9.2-2.4c-2.7-1.5-5-3.8-6.6-6.5c-1.6-2.8-2.4-5.9-2.4-9.1
			c0-3.2,0.8-6.3,2.4-9c1.6-2.7,3.9-4.9,6.6-6.4c5.1-2.8,11.3-3.1,16.6-0.9c2.3,0.9,4.4,2.3,6.1,4.1l-3.9,4.9
			C365.8,99.5,364.3,98.4,362.7,97.6z"/>
		<path class="st0" d="M394.4,100.6c2.1,1.1,3.8,2.7,4.9,4.8c1.2,2.1,1.8,4.6,1.8,7c0.1,2.5-0.6,4.9-1.8,7.1c-1.2,2-2.9,3.7-4.9,4.8
			c-2.3,1.2-4.8,1.7-7.3,1.7c-2.6,0.1-5.1-0.5-7.4-1.7c-2.1-1.1-3.8-2.7-5-4.8c-1.2-2.2-1.8-4.6-1.8-7.1c0-2.4,0.6-4.9,1.8-7
			c1.2-2,2.9-3.7,5-4.8c2.3-1.2,4.8-1.7,7.4-1.7C389.6,98.8,392.1,99.4,394.4,100.6z M381.6,106.7c-2.8,3.4-2.8,8.3,0,11.6
			c1.4,1.5,3.4,2.3,5.5,2.2c2,0.1,4-0.7,5.4-2.2c2.8-3.4,2.8-8.3,0-11.6c-1.4-1.5-3.3-2.3-5.4-2.2
			C385,104.3,383.1,105.1,381.6,106.7L381.6,106.7z"/>
		<path class="st0" d="M448.7,101.6c1.8,2.1,2.7,4.8,2.6,7.5v16.6h-6.5V111c0.1-1.6-0.5-3.2-1.6-4.5c-1.1-1.1-2.7-1.7-4.2-1.6
			c-1.9,0-3.7,0.8-4.9,2.2c-1.2,1.5-1.9,3.5-1.8,5.4v13.1h-6.5V111c0.1-1.6-0.5-3.2-1.5-4.5c-1.1-1.1-2.7-1.7-4.2-1.6
			c-1.9,0-3.7,0.8-4.9,2.2c-1.2,1.5-1.9,3.5-1.8,5.4v13.1h-6.5V99.1h6.5v4.9c1.8-3.4,4.9-5.1,9.4-5.2c2.1-0.1,4.1,0.5,5.8,1.7
			c1.6,1.2,2.8,2.8,3.3,4.7c1.7-4.2,5-6.3,9.9-6.4C444.2,98.7,446.8,99.7,448.7,101.6z"/>
		<path class="st0" d="M480.8,100.6c1.9,1.1,3.4,2.8,4.4,4.8c1.1,2.2,1.6,4.7,1.6,7.1c0,2.4-0.5,4.8-1.5,7c-1,2-2.5,3.6-4.4,4.7
			c-2,1.2-4.3,1.7-6.6,1.7c-1.8,0-3.6-0.4-5.3-1.2c-1.5-0.8-2.8-2-3.8-3.4v14h-6.5V99.1h6.4v4.4c0.9-1.4,2.2-2.6,3.7-3.4
			c1.6-0.8,3.4-1.2,5.2-1.2C476.5,98.8,478.8,99.4,480.8,100.6z M478.1,118.1c1.4-1.6,2.2-3.7,2.1-5.8c0.1-2.1-0.7-4.2-2.1-5.8
			c-1.4-1.5-3.3-2.3-5.4-2.2c-2-0.1-4,0.7-5.4,2.2c-2.8,3.4-2.8,8.2,0,11.6c1.4,1.5,3.4,2.3,5.4,2.2
			C474.8,120.4,476.7,119.6,478.1,118.1z"/>
		<path class="st0" d="M508.1,125.7v-3.2c-0.9,1.2-2.2,2.1-3.6,2.6c-1.6,0.6-3.3,0.9-5,0.9c-1.7,0-3.4-0.3-4.9-1.1
			c-1.4-0.7-2.5-1.7-3.3-3c-0.8-1.3-1.2-2.7-1.1-4.2c-0.1-2.3,0.9-4.4,2.6-5.8c1.8-1.4,4.2-2.1,7.5-2.2h7.8V109
			c0.1-1.4-0.5-2.7-1.5-3.6c-1.3-0.9-2.9-1.4-4.5-1.3c-2.8,0.1-5.6,1-7.9,2.5l-2.3-4.5c1.8-1,3.7-1.9,5.7-2.5c2-0.6,4-0.8,6-0.8
			c3.5,0,6.1,0.8,8,2.5c2,1.8,3,4.4,2.9,7v17.4L508.1,125.7z M505.8,119.7c1.2-0.7,2-1.9,2.2-3.3v-2.4h-6.7
			c-1.3-0.1-2.6,0.2-3.8,0.8c-0.8,0.6-1.3,1.5-1.2,2.5c0,1.1,0.4,2.1,1.3,2.7c1,0.7,2.2,1.1,3.5,1
			C502.7,121.1,504.4,120.6,505.8,119.7L505.8,119.7z"/>
		<path class="st0" d="M545,101.6c1.8,2,2.8,4.7,2.6,7.5v16.6h-6.5V111c0.1-1.6-0.5-3.2-1.6-4.4c-1.2-1.1-2.7-1.7-4.3-1.6
			c-1.9-0.1-3.8,0.7-5.1,2.2c-1.3,1.5-1.9,3.5-1.9,5.5v13.1h-6.5V99.1h6.5v5c1.8-3.4,5-5.2,9.5-5.2C540.4,98.7,543,99.7,545,101.6z"
			/>
		<path class="st0" d="M560.7,88.7c0.7,0.7,1.1,1.8,1,2.8c0,1-0.3,2-1,2.7c-0.7,0.7-1.6,1.1-2.6,1.1c-1,0-2-0.4-2.6-1.1
			c-0.7-0.7-1-1.7-1-2.7c0-1,0.3-2,1-2.8c0.7-0.7,1.6-1.1,2.6-1.1C559,87.6,560,88,560.7,88.7z M554.9,99.1h6.5v26.6h-6.5V99.1z"/>
		<path class="st0" d="M588.3,100.6c2.1,1.1,3.8,2.7,4.9,4.7c1.2,2.1,1.8,4.6,1.8,7c0.1,2.5-0.6,4.9-1.8,7.1c-1.1,2-2.9,3.7-4.9,4.8
			c-2.3,1.2-4.8,1.7-7.3,1.7c-2.6,0.1-5.1-0.5-7.4-1.7c-2.1-1.1-3.8-2.7-5-4.8c-1.2-2.2-1.8-4.6-1.8-7.1c0-2.4,0.6-4.9,1.8-7
			c1.2-2,2.9-3.7,5-4.8c2.3-1.2,4.8-1.7,7.4-1.7C583.5,98.8,586,99.4,588.3,100.6z M575.5,106.7c-2.8,3.4-2.8,8.3,0,11.6
			c1.4,1.5,3.4,2.3,5.5,2.2c2,0.1,4-0.7,5.4-2.2c2.8-3.4,2.8-8.3,0-11.6c-1.4-1.5-3.3-2.3-5.4-2.2
			C578.9,104.3,576.9,105.1,575.5,106.7L575.5,106.7z"/>
		<path class="st0" d="M623.8,101.6c1.8,2.1,2.8,4.7,2.6,7.5v16.6h-6.5V111c0.1-1.6-0.5-3.2-1.6-4.4c-1.2-1.1-2.7-1.7-4.3-1.6
			c-1.9-0.1-3.8,0.7-5.1,2.2c-1.3,1.5-1.9,3.5-1.9,5.5v13.1h-6.5V99.1h6.5v5c1.8-3.4,5-5.2,9.5-5.2
			C619.3,98.7,621.9,99.7,623.8,101.6z"/>
	</g>
</g>
</svg>
