<svg id="Layer_1" data-name="Layer 1" xmlns="http://www.w3.org/2000/svg" viewBox="0 0 500 500"><title>Lab-companion_white</title><path d="M185.07,201.68l13.26-42.51a5.95,5.95,0,0,1,11.25-.3l34.93,94,9.57-27.9a5.92,5.92,0,0,1,5.74-4l83,1.54a59.67,59.67,0,1,0-92.42-74A59.69,59.69,0,0,0,144,201.68Z" style="fill:#fff"/><path d="M263.93,232.92l-13.57,39.55a6,6,0,0,1-5.55,4h-.08a6,6,0,0,1-5.57-3.87L204.5,179.34l-9.38,30.06a6,6,0,0,1-5.68,4.18h-39a60.13,60.13,0,0,0,9.89,11.06l84.63,84.64a7.7,7.7,0,0,0,10.9,0l75.11-75.11Z" style="fill:#fff"/><path d="M53.74,335.53H65.28V360.8H79.81v9.6H53.74Z" style="fill:#fff"/><path d="M105.5,345.35a9,9,0,0,1,3.31,7.44V370.4h-11v-2.93c-1.66,2.29-4.22,3.43-7.66,3.43a9.29,9.29,0,0,1-6.7-2.31,8.26,8.26,0,0,1-2.41-6.25,7.3,7.3,0,0,1,2.69-6.12q2.69-2.09,7.86-2.19h6.22a2.72,2.72,0,0,0-1.12-2.21,5.33,5.33,0,0,0-3.11-.77,19.62,19.62,0,0,0-3.81.45,29.35,29.35,0,0,0-4.45,1.29l-2.49-7.46a44.67,44.67,0,0,1,6.94-2,34.81,34.81,0,0,1,6.49-.67Q102.2,342.69,105.5,345.35Zm-9.35,17.89a4.57,4.57,0,0,0,1.67-1.54v-2.49H93.94c-1.6,0-2.39.73-2.39,2.19a2.29,2.29,0,0,0,.65,1.76,2.52,2.52,0,0,0,1.84.63A4.49,4.49,0,0,0,96.15,363.24Z" style="fill:#fff"/><path d="M138.46,344.53a11.5,11.5,0,0,1,4.38,5,17.1,17.1,0,0,1,1.54,7.49,16.88,16.88,0,0,1-1.49,7.31,11.14,11.14,0,0,1-4.25,4.83,12.07,12.07,0,0,1-6.45,1.69,9.75,9.75,0,0,1-4-.82,9.31,9.31,0,0,1-3.18-2.36v2.78H113.79V333.49H125v12.43a8.72,8.72,0,0,1,6.92-3.13A12.29,12.29,0,0,1,138.46,344.53Zm-6.49,16a7.11,7.11,0,0,0,0-7.66,3.57,3.57,0,0,0-3-1.44,3.5,3.5,0,0,0-2.94,1.44,7.27,7.27,0,0,0,0,7.66,3.5,3.5,0,0,0,2.94,1.44A3.57,3.57,0,0,0,132,360.5Z" style="fill:#fff"/><path d="M182.47,342.29a11.89,11.89,0,0,0-5.1-1.19,11.65,11.65,0,0,0-5.92,1.54,11.17,11.17,0,0,0-4.23,4.26,12.18,12.18,0,0,0,0,11.89,11.33,11.33,0,0,0,4.23,4.27,11.47,11.47,0,0,0,5.92,1.57,12.47,12.47,0,0,0,5-1.09,14.26,14.26,0,0,0,4.45-3l3.93,4.38a20.46,20.46,0,0,1-6.37,4.4A17.89,17.89,0,0,1,177,370.9a18.28,18.28,0,0,1-9.21-2.39,17.47,17.47,0,0,1-6.56-6.49,17.75,17.75,0,0,1-2.39-9.08,17.25,17.25,0,0,1,2.44-9.05,17.5,17.5,0,0,1,6.64-6.42,19.28,19.28,0,0,1,16.64-.85,18,18,0,0,1,6.12,4.13l-3.88,4.88A13.2,13.2,0,0,0,182.47,342.29Z" style="fill:#fff"/><path d="M214.21,345.28a12.29,12.29,0,0,1,4.92,4.75,13.81,13.81,0,0,1,1.77,7,14,14,0,0,1-1.77,7.11,12.24,12.24,0,0,1-4.92,4.78,15.2,15.2,0,0,1-7.29,1.69,15.47,15.47,0,0,1-7.37-1.69,12.19,12.19,0,0,1-5-4.78,14.09,14.09,0,0,1-1.76-7.11,13.91,13.91,0,0,1,1.76-7,12.24,12.24,0,0,1,5-4.75,15.47,15.47,0,0,1,7.37-1.69A15.2,15.2,0,0,1,214.21,345.28Zm-12.76,6.07a9.15,9.15,0,0,0,0,11.64,7.13,7.13,0,0,0,5.47,2.24,7,7,0,0,0,5.37-2.24,9.15,9.15,0,0,0,0-11.64,7,7,0,0,0-5.37-2.24A7.13,7.13,0,0,0,201.45,351.35Z" style="fill:#fff"/><path d="M268.51,346.3a10.52,10.52,0,0,1,2.59,7.49V370.4h-6.52V355.68a6.13,6.13,0,0,0-1.57-4.46,5.66,5.66,0,0,0-4.25-1.61,6.35,6.35,0,0,0-4.9,2.24,8.07,8.07,0,0,0-1.82,5.42V370.4h-6.52V355.68a6.2,6.2,0,0,0-1.54-4.46,5.6,5.6,0,0,0-4.23-1.61,6.4,6.4,0,0,0-4.95,2.24,8.07,8.07,0,0,0-1.81,5.42V370.4h-6.47V343.79H233v4.92q2.63-5.07,9.35-5.17a9.87,9.87,0,0,1,5.84,1.66,8.73,8.73,0,0,1,3.31,4.71q2.55-6.27,9.9-6.37A9.3,9.3,0,0,1,268.51,346.3Z" style="fill:#fff"/><path d="M300.57,345.3a11.68,11.68,0,0,1,4.43,4.8,15.58,15.58,0,0,1,1.57,7.12,15.24,15.24,0,0,1-1.55,7,11.36,11.36,0,0,1-4.37,4.73,12.55,12.55,0,0,1-6.57,1.69,11.47,11.47,0,0,1-5.28-1.17,10,10,0,0,1-3.78-3.41v14h-6.46V343.79H285v4.37a9.67,9.67,0,0,1,3.71-3.4,11.28,11.28,0,0,1,5.25-1.17A12.59,12.59,0,0,1,300.57,345.3Zm-2.66,17.51A8.2,8.2,0,0,0,300,357a8.12,8.12,0,0,0-2.09-5.77,7,7,0,0,0-5.37-2.24,7.1,7.1,0,0,0-5.43,2.24,9.08,9.08,0,0,0,0,11.59,7.1,7.1,0,0,0,5.43,2.24A7,7,0,0,0,297.91,362.81Z" style="fill:#fff"/><path d="M327.91,370.4v-3.23a8.76,8.76,0,0,1-3.58,2.64,13.35,13.35,0,0,1-5,.89,10.75,10.75,0,0,1-4.9-1.07,7.87,7.87,0,0,1-3.26-3,8,8,0,0,1-1.14-4.23,7.06,7.06,0,0,1,2.64-5.84q2.63-2.12,7.46-2.17h7.76v-.69a4.53,4.53,0,0,0-1.54-3.64,6.82,6.82,0,0,0-4.48-1.29,15.36,15.36,0,0,0-7.91,2.49l-2.34-4.48a29.2,29.2,0,0,1,5.7-2.51,20.6,20.6,0,0,1,6-.77q5.18,0,8,2.48a8.93,8.93,0,0,1,2.91,7l0,17.41Zm-2.29-6a4.6,4.6,0,0,0,2.24-3.26v-2.39h-6.72a7.32,7.32,0,0,0-3.8.77,2.74,2.74,0,0,0-1.22,2.51,3.22,3.22,0,0,0,1.27,2.69,5.45,5.45,0,0,0,3.45,1A8.46,8.46,0,0,0,325.62,364.41Z" style="fill:#fff"/><path d="M364.77,346.3a10.37,10.37,0,0,1,2.64,7.49V370.4h-6.52V355.68a6,6,0,0,0-1.59-4.41,5.82,5.82,0,0,0-4.33-1.61,6.56,6.56,0,0,0-5.1,2.19,8,8,0,0,0-1.86,5.47V370.4h-6.47V343.79H348v5q2.73-5.13,9.55-5.22A9.5,9.5,0,0,1,364.77,346.3Z" style="fill:#fff"/><path d="M380.49,333.44a3.86,3.86,0,0,1,1.05,2.78,3.8,3.8,0,0,1-1.05,2.74,3.46,3.46,0,0,1-2.63,1.09,3.5,3.5,0,0,1-2.64-1.09,3.79,3.79,0,0,1-1-2.74,3.85,3.85,0,0,1,1-2.78,3.51,3.51,0,0,1,2.64-1.1A3.47,3.47,0,0,1,380.49,333.44Zm-5.82,10.35h6.47V370.4h-6.47Z" style="fill:#fff"/><path d="M408.08,345.28A12.23,12.23,0,0,1,413,350a13.81,13.81,0,0,1,1.77,7,14,14,0,0,1-1.77,7.11,12.17,12.17,0,0,1-4.92,4.78,15.2,15.2,0,0,1-7.29,1.69,15.4,15.4,0,0,1-7.36-1.69,12.07,12.07,0,0,1-4.95-4.78,14,14,0,0,1-1.77-7.11,13.81,13.81,0,0,1,1.77-7,12.12,12.12,0,0,1,4.95-4.75,15.4,15.4,0,0,1,7.36-1.69A15.2,15.2,0,0,1,408.08,345.28Zm-12.76,6.07a9.15,9.15,0,0,0,0,11.64,7.13,7.13,0,0,0,5.47,2.24,7,7,0,0,0,5.37-2.24,9.15,9.15,0,0,0,0-11.64,7,7,0,0,0-5.37-2.24A7.13,7.13,0,0,0,395.32,351.35Z" style="fill:#fff"/><path d="M443.63,346.3a10.41,10.41,0,0,1,2.63,7.49V370.4h-6.52V355.68a6,6,0,0,0-1.59-4.41,5.82,5.82,0,0,0-4.33-1.61,6.56,6.56,0,0,0-5.1,2.19,8,8,0,0,0-1.86,5.47V370.4h-6.47V343.79h6.47v5q2.73-5.13,9.55-5.22A9.52,9.52,0,0,1,443.63,346.3Z" style="fill:#fff"/></svg>